<svg width="250" height="120" viewBox="0 0 250 120" fill="none" xmlns="http://www.w3.org/2000/svg">
<rect width="250" height="120" fill="white"/>
<path d="M225.827 40.9619H238.698V75.3806C238.698 79.3583 237.752 82.8236 235.858 85.7765C233.965 88.7121 231.325 90.9875 227.938 92.6029C224.55 94.201 220.616 95 216.135 95C211.601 95 207.641 94.201 204.254 92.6029C200.866 90.9875 198.235 88.7121 196.359 85.7765C194.483 82.8236 193.545 79.3583 193.545 75.3806V40.9619H206.442V74.2602C206.442 76.1014 206.842 77.7429 207.641 79.1846C208.457 80.6263 209.595 81.7554 211.054 82.5718C212.513 83.3882 214.207 83.7964 216.135 83.7964C218.063 83.7964 219.748 83.3882 221.189 82.5718C222.648 81.7554 223.786 80.6263 224.603 79.1846C225.419 77.7429 225.827 76.1014 225.827 74.2602V40.9619Z" fill="white"/>
<path d="M12 94.9166V41.0984H34.2315C38.2609 41.0984 41.7384 41.8868 44.6641 43.4635C47.6072 45.0227 49.8759 47.2038 51.4702 50.0068C53.0644 52.7923 53.8615 56.0333 53.8615 59.7298C53.8615 63.4439 53.0469 66.6936 51.4176 69.4791C49.8059 72.2471 47.5021 74.3932 44.5064 75.9173C41.5107 77.4415 37.9543 78.2036 33.8374 78.2036H20.12V67.955H31.4197C33.3819 67.955 35.0199 67.6134 36.3338 66.9301C37.6652 66.2469 38.6726 65.2921 39.3558 64.0658C40.0391 62.8219 40.3807 61.3766 40.3807 59.7298C40.3807 58.0655 40.0391 56.629 39.3558 55.4202C38.6726 54.1939 37.6652 53.2478 36.3338 52.5821C35.0024 51.9164 33.3643 51.5835 31.4197 51.5835H25.0078V94.9166H12Z" fill="white"/>
<path d="M48.4334 94.9166V41.0984H61.4412V84.3527H83.8305V94.9166H48.4334Z" fill="white"/>
<path d="M91.0883 94.9166H77.1082L95.2666 41.0984H112.584L130.742 94.9166H116.762L104.122 54.6581H103.702L91.0883 94.9166ZM89.2225 73.7362H118.444V83.6169H89.2225V73.7362Z" fill="white"/>
<path d="M170.5 41.0984V94.9166H159.463L138.046 63.8556H137.705V94.9166H124.697V41.0984H135.891L157.072 72.107H157.519V41.0984H170.5Z" fill="white"/>
<path d="M197.274 88.75H180.809L182.844 77.0025H156.574L160.367 55.635L186.544 24H204.119L177.387 58.3175L176.462 63.6825H186.359L188.672 51.01H203.934L201.622 63.6825H210.779L208.467 77.0025H199.309L197.274 88.75Z" fill="#FFA800"/>
</svg>
